<svg width="32" height="32" viewBox="0 0 32 32" fill="none" xmlns="http://www.w3.org/2000/svg">
<g id="icons8_clear_symbol_1 2" clip-path="url(#clip0_4165_239)">
<path id="Vector" opacity="0.1" d="M26.6667 5.33301H9.42667C7.64 5.33301 5.98133 6.22101 4.98933 7.70767L0.448 14.5197C-0.149333 15.4157 -0.149333 16.5823 0.448 17.4783L4.98933 24.2903C5.98133 25.7783 7.64 26.6663 9.42667 26.6663H26.6667C28.872 26.6663 30.6667 24.8717 30.6667 22.6663V9.33301C30.6667 7.12767 28.872 5.33301 26.6667 5.33301Z" fill="black"/>
<path id="Vector_2" d="M21.0824 21.6201L11.7131 12.2508C11.2011 11.7388 11.2011 10.9068 11.7131 10.3948L11.7278 10.3801C12.2398 9.86809 13.0718 9.86809 13.5838 10.3801L22.9531 19.7494C23.4651 20.2614 23.4651 21.0934 22.9531 21.6054L22.9384 21.6201C22.4264 22.1321 21.5944 22.1321 21.0824 21.6201Z" fill="#141414"/>
<path id="Vector_3" d="M11.7131 19.7494L21.0824 10.3801C21.5944 9.86809 22.4264 9.86809 22.9384 10.3801L22.9531 10.3948C23.4651 10.9068 23.4651 11.7388 22.9531 12.2508L13.5838 21.6201C13.0718 22.1321 12.2398 22.1321 11.7278 21.6201L11.7131 21.6054C11.2011 21.0934 11.2011 20.2614 11.7131 19.7494Z" fill="#141414"/>
</g>
<defs>
<clipPath id="clip0_4165_239">
<rect width="32" height="32" fill="white"/>
</clipPath>
</defs>
</svg>
