<svg xmlns="http://www.w3.org/2000/svg" width="16" height="16" viewBox="0 0 16 16">
  <g id="call_out" transform="translate(-8408 620)">
    <rect id="Rectangle_6284" data-name="Rectangle 6284" width="16" height="16" transform="translate(8408 -620)" fill="#fff" opacity="0"/>
    <g id="call_out-2" data-name="call_out" transform="translate(20348 18578)">
      <circle id="Ellipse_1113" data-name="Ellipse 1113" cx="6" cy="6" r="6" transform="translate(-11938 -19196)" fill="#1cab4e"/>
      <g id="Group_2750" data-name="Group 2750" transform="translate(-11935.5 -19193.688)">
        <path id="Path_7144" data-name="Path 7144" d="M2.173,0a.271.271,0,0,0-.251.168.274.274,0,0,0,.062.3l.625.622H.274a.273.273,0,0,0-.237.136.277.277,0,0,0,0,.274.271.271,0,0,0,.237.134H2.608l-.625.622a.271.271,0,0,0-.074.265.266.266,0,0,0,.194.194.271.271,0,0,0,.265-.074L3.456,1.553a.273.273,0,0,0,0-.385L2.369.081A.27.27,0,0,0,2.173,0Z" transform="translate(2.591 2.5) rotate(-45)" fill="#fff"/>
        <path id="Path_7143" data-name="Path 7143" d="M1.016,0a.3.3,0,0,0-.1.009,1.042,1.042,0,0,0-.5.295C-.155.879-.459,1.847,1.7,4.006S4.828,5.862,5.4,5.285a1.074,1.074,0,0,0,.3-.493.322.322,0,0,0-.15-.353L4.274,3.693a.316.316,0,0,0-.325,0L3.442,4a.324.324,0,0,1-.362-.021,8.313,8.313,0,0,1-.721-.629,8.652,8.652,0,0,1-.629-.724.312.312,0,0,1-.021-.36l.3-.507a.32.32,0,0,0,0-.327L1.267.16A.316.316,0,0,0,1.016,0Z" transform="matrix(1, -0.017, 0.017, 1, 0, 1.447)" fill="#fff"/>
      </g>
    </g>
  </g>
</svg>
