<svg width="32" height="32" viewBox="0 0 32 32" fill="none" xmlns="http://www.w3.org/2000/svg">
<g id="icons8_ten_keys 2">
<path id="Vector" d="M17.3333 7.33333H14.6667C13.93 7.33333 13.3333 6.73667 13.3333 6V3.33333C13.3333 2.59667 13.93 2 14.6667 2H17.3333C18.07 2 18.6667 2.59667 18.6667 3.33333V6C18.6667 6.73667 18.07 7.33333 17.3333 7.33333ZM10 7.33333H7.33333C6.59667 7.33333 6 6.73667 6 6V3.33333C6 2.59667 6.59667 2 7.33333 2H10C10.7367 2 11.3333 2.59667 11.3333 3.33333V6C11.3333 6.73667 10.7367 7.33333 10 7.33333ZM24.6667 7.33333H22C21.2633 7.33333 20.6667 6.73667 20.6667 6V3.33333C20.6667 2.59667 21.2633 2 22 2H24.6667C25.4033 2 26 2.59667 26 3.33333V6C26 6.73667 25.4033 7.33333 24.6667 7.33333ZM17.3333 14.6667H14.6667C13.93 14.6667 13.3333 14.07 13.3333 13.3333V10.6667C13.3333 9.93 13.93 9.33333 14.6667 9.33333H17.3333C18.07 9.33333 18.6667 9.93 18.6667 10.6667V13.3333C18.6667 14.07 18.07 14.6667 17.3333 14.6667ZM10 14.6667H7.33333C6.59667 14.6667 6 14.07 6 13.3333V10.6667C6 9.93 6.59667 9.33333 7.33333 9.33333H10C10.7367 9.33333 11.3333 9.93 11.3333 10.6667V13.3333C11.3333 14.07 10.7367 14.6667 10 14.6667ZM24.6667 14.6667H22C21.2633 14.6667 20.6667 14.07 20.6667 13.3333V10.6667C20.6667 9.93 21.2633 9.33333 22 9.33333H24.6667C25.4033 9.33333 26 9.93 26 10.6667V13.3333C26 14.07 25.4033 14.6667 24.6667 14.6667ZM24.6667 22H22C21.2633 22 20.6667 21.4033 20.6667 20.6667V18C20.6667 17.2633 21.2633 16.6667 22 16.6667H24.6667C25.4033 16.6667 26 17.2633 26 18V20.6667C26 21.4033 25.4033 22 24.6667 22ZM17.3333 22H14.6667C13.93 22 13.3333 21.4033 13.3333 20.6667V18C13.3333 17.2633 13.93 16.6667 14.6667 16.6667H17.3333C18.07 16.6667 18.6667 17.2633 18.6667 18V20.6667C18.6667 21.4033 18.07 22 17.3333 22ZM10 22H7.33333C6.59667 22 6 21.4033 6 20.6667V18C6 17.2633 6.59667 16.6667 7.33333 16.6667H10C10.7367 16.6667 11.3333 17.2633 11.3333 18V20.6667C11.3333 21.4033 10.7367 22 10 22ZM17.3333 29.3333H14.6667C13.93 29.3333 13.3333 28.7367 13.3333 28V25.3333C13.3333 24.5967 13.93 24 14.6667 24H17.3333C18.07 24 18.6667 24.5967 18.6667 25.3333V28C18.6667 28.7367 18.07 29.3333 17.3333 29.3333Z" fill="white"/>
</g>
</svg>
