<svg xmlns="http://www.w3.org/2000/svg" width="16" height="16" viewBox="0 0 16 16">
  <g id="miss_call" transform="translate(-8449 620)">
    <rect id="Rectangle_6286" data-name="Rectangle 6286" width="16" height="16" transform="translate(8449 -620)" fill="#fff" opacity="0"/>
    <g id="miss_call-2" data-name="miss_call" transform="translate(20334 18578)">
      <g id="Group_10685" data-name="Group 10685" transform="translate(-11882.8 -19196)">
        <circle id="Ellipse_1115" data-name="Ellipse 1115" cx="6" cy="6" r="6" transform="translate(-0.2 -0.001)" fill="#ff6969"/>
        <g id="Group_1162" data-name="Group 1162" transform="translate(2.585 3.245)">
          <path id="Path_7149" data-name="Path 7149" d="M3.474,1.84a.129.129,0,0,1,.027,0H4.7a.249.249,0,0,1,.219.122.253.253,0,0,1,0,.251.249.249,0,0,1-.219.122h-.63L5.457,3.726,7.019,2.162a.248.248,0,0,1,.242-.067.24.24,0,0,1,.177.177.248.248,0,0,1-.067.242L5.632,4.252a.249.249,0,0,1-.352,0L3.716,2.689v.63a.249.249,0,0,1-.122.219.253.253,0,0,1-.251,0,.249.249,0,0,1-.122-.219V2.12a.252.252,0,0,1,.061-.2A.243.243,0,0,1,3.474,1.84Z" transform="translate(-1.98 -1.839)" fill="#fff"/>
          <path id="Path_7150" data-name="Path 7150" d="M4.15,7.367c-2.8,0-3.229.826-3.229,1.57a.966.966,0,0,0,.129.514.289.289,0,0,0,.325.131l1.311-.341a.289.289,0,0,0,.209-.213L3.027,8.5a.29.29,0,0,1,.249-.219,7.614,7.614,0,0,1,.875-.059,7.7,7.7,0,0,1,.879.059.292.292,0,0,1,.247.219l.133.525a.292.292,0,0,0,.211.213l1.309.341a.291.291,0,0,0,.325-.133.952.952,0,0,0,.129-.512C7.381,8.193,6.951,7.367,4.15,7.367Z" transform="translate(-0.922 -4.385)" fill="#fff"/>
        </g>
      </g>
    </g>
  </g>
</svg>
