<svg width="13" height="14" viewBox="0 0 13 14" fill="none" xmlns="http://www.w3.org/2000/svg">
<g id="icons8_telephone 1">
<path id="Vector" d="M6.49979 1.74902C4.57661 1.74902 2.72225 2.12999 1.70255 3.11279C1.22397 3.57381 0.998248 4.26144 1.10693 4.93058L1.11063 4.95223L1.19421 5.27124C1.35557 6.00042 2.0062 6.48373 2.69808 6.40885L2.7039 6.40828L3.37622 6.31543H3.37675C3.9681 6.25168 4.46305 5.79516 4.59761 5.17554L4.58809 5.21143L4.77164 4.60417L4.77588 4.58594C4.78009 4.56653 4.79595 4.54736 4.81026 4.53524C4.82809 4.53108 4.90078 4.50204 4.98905 4.48511C5.11198 4.46153 5.27605 4.44015 5.45296 4.42358C5.80674 4.39049 6.21491 4.37516 6.49979 4.37516C6.78468 4.37516 7.19288 4.39042 7.54663 4.42358C7.7235 4.44017 7.88769 4.4615 8.01054 4.48511C8.09915 4.50214 8.1721 4.53132 8.18933 4.53524C8.20351 4.54758 8.21928 4.56783 8.22318 4.58594L8.22741 4.60417L8.41097 5.21143L8.40145 5.17554C8.53604 5.79533 9.03179 6.25188 9.62337 6.31543L9.61173 6.31429L10.2957 6.40885L10.301 6.40942C10.9931 6.4847 11.6436 6.00105 11.8048 5.27181L11.889 4.95223L11.8921 4.93058C12.0008 4.26124 11.7747 3.57432 11.2965 3.11336C10.277 2.13012 8.42298 1.74902 6.49979 1.74902ZM6.49979 2.62402C8.30924 2.62402 10.0524 3.08754 10.7548 3.76506C11.0291 4.0294 11.1486 4.40746 11.0913 4.77336L11.0167 5.06047L11.0146 5.06901C10.9495 5.36316 10.6779 5.57041 10.3835 5.53898L9.70959 5.44556L9.70377 5.44499C9.44818 5.41755 9.24669 5.22436 9.19279 4.97616L9.18908 4.9585L9.00553 4.35124L9.01452 4.3877C8.95901 4.13026 8.81156 3.9127 8.60245 3.77759H8.60193C8.43783 3.67108 8.31407 3.65466 8.15336 3.62378C7.99247 3.59286 7.80952 3.57005 7.61698 3.552C7.23191 3.5159 6.81101 3.50016 6.49979 3.50016C6.18858 3.50016 5.76769 3.51594 5.38261 3.552C5.19006 3.57003 5.00711 3.59292 4.84623 3.62378C4.68575 3.65456 4.56179 3.67077 4.39819 3.77645C4.18837 3.91137 4.04038 4.12991 3.98454 4.38713L3.99406 4.35124L3.8105 4.95793L3.80627 4.97616C3.75237 5.22436 3.55088 5.41696 3.29529 5.44442L3.28947 5.44499L2.61662 5.53841C2.32212 5.57027 2.05008 5.36243 1.98502 5.06844L1.98291 5.0599L1.90779 4.77279C1.85064 4.40692 1.96999 4.02921 2.24422 3.76506H2.24475C2.94755 3.08769 4.69035 2.62402 6.49979 2.62402ZM5.81636 4.95223C5.70871 4.95404 5.60613 5.00179 5.53115 5.085C5.45616 5.16821 5.41492 5.28006 5.41646 5.396V6.00041L4.1792 6.66691C2.78017 7.41991 1.89563 8.96192 1.89563 10.646C1.89563 11.5268 2.56736 12.2502 3.38521 12.2502H9.61438C10.4322 12.2502 11.104 11.5268 11.104 10.646C11.104 8.96186 10.219 7.42018 8.82039 6.66691L7.58313 6.00041V5.396C7.58389 5.33802 7.57394 5.28046 7.55387 5.22667C7.53379 5.17287 7.50399 5.1239 7.46619 5.08261C7.42839 5.04133 7.38335 5.00854 7.33368 4.98617C7.28402 4.96379 7.23072 4.95227 7.17688 4.95227C7.12304 4.95227 7.06974 4.96379 7.02007 4.98617C6.9704 5.00854 6.92536 5.04133 6.88756 5.08261C6.84976 5.1239 6.81996 5.17287 6.79989 5.22667C6.77981 5.28046 6.76987 5.33802 6.77063 5.396V5.8335H6.22896V5.396C6.22974 5.33744 6.2196 5.27931 6.19913 5.22505C6.17867 5.1708 6.14829 5.12152 6.10982 5.08013C6.07134 5.03875 6.02554 5.0061 5.97513 4.98413C5.92473 4.96216 5.87074 4.95131 5.81636 4.95223ZM5.91898 6.7085H7.0806L8.45699 7.44963C9.58198 8.05552 10.2915 9.29155 10.2915 10.646C10.2915 11.0538 9.99306 11.3752 9.61438 11.3752H3.38521C3.00652 11.3752 2.70813 11.0538 2.70813 10.646C2.70813 9.29149 3.41746 8.05521 4.5426 7.44963L5.91898 6.7085ZM5.01021 8.16683C4.90247 8.16683 4.79914 8.21292 4.72295 8.29497C4.64676 8.37702 4.60396 8.4883 4.60396 8.60433C4.60396 8.72036 4.64676 8.83164 4.72295 8.91369C4.79914 8.99574 4.90247 9.04183 5.01021 9.04183C5.11795 9.04183 5.22129 8.99574 5.29747 8.91369C5.37366 8.83164 5.41646 8.72036 5.41646 8.60433C5.41646 8.4883 5.37366 8.37702 5.29747 8.29497C5.22129 8.21292 5.11795 8.16683 5.01021 8.16683ZM6.49979 8.16683C6.39205 8.16683 6.28872 8.21292 6.21253 8.29497C6.13635 8.37702 6.09354 8.4883 6.09354 8.60433C6.09354 8.72036 6.13635 8.83164 6.21253 8.91369C6.28872 8.99574 6.39205 9.04183 6.49979 9.04183C6.60754 9.04183 6.71087 8.99574 6.78706 8.91369C6.86324 8.83164 6.90604 8.72036 6.90604 8.60433C6.90604 8.4883 6.86324 8.37702 6.78706 8.29497C6.71087 8.21292 6.60754 8.16683 6.49979 8.16683ZM7.98938 8.16683C7.88163 8.16683 7.7783 8.21292 7.70212 8.29497C7.62593 8.37702 7.58313 8.4883 7.58313 8.60433C7.58313 8.72036 7.62593 8.83164 7.70212 8.91369C7.7783 8.99574 7.88163 9.04183 7.98938 9.04183C8.09712 9.04183 8.20045 8.99574 8.27664 8.91369C8.35283 8.83164 8.39563 8.72036 8.39563 8.60433C8.39563 8.4883 8.35283 8.37702 8.27664 8.29497C8.20045 8.21292 8.09712 8.16683 7.98938 8.16683ZM5.01021 9.62516C4.90247 9.62516 4.79914 9.67126 4.72295 9.7533C4.64676 9.83535 4.60396 9.94663 4.60396 10.0627C4.60396 10.1787 4.64676 10.29 4.72295 10.372C4.79914 10.4541 4.90247 10.5002 5.01021 10.5002C5.11795 10.5002 5.22129 10.4541 5.29747 10.372C5.37366 10.29 5.41646 10.1787 5.41646 10.0627C5.41646 9.94663 5.37366 9.83535 5.29747 9.7533C5.22129 9.67126 5.11795 9.62516 5.01021 9.62516ZM6.49979 9.62516C6.39205 9.62516 6.28872 9.67126 6.21253 9.7533C6.13635 9.83535 6.09354 9.94663 6.09354 10.0627C6.09354 10.1787 6.13635 10.29 6.21253 10.372C6.28872 10.4541 6.39205 10.5002 6.49979 10.5002C6.60754 10.5002 6.71087 10.4541 6.78706 10.372C6.86324 10.29 6.90604 10.1787 6.90604 10.0627C6.90604 9.94663 6.86324 9.83535 6.78706 9.7533C6.71087 9.67126 6.60754 9.62516 6.49979 9.62516ZM7.98938 9.62516C7.88163 9.62516 7.7783 9.67126 7.70212 9.7533C7.62593 9.83535 7.58313 9.94663 7.58313 10.0627C7.58313 10.1787 7.62593 10.29 7.70212 10.372C7.7783 10.4541 7.88163 10.5002 7.98938 10.5002C8.09712 10.5002 8.20045 10.4541 8.27664 10.372C8.35283 10.29 8.39563 10.1787 8.39563 10.0627C8.39563 9.94663 8.35283 9.83535 8.27664 9.7533C8.20045 9.67126 8.09712 9.62516 7.98938 9.62516Z" fill="#141414"/>
</g>
</svg>
